# Blender 5.2.1 LTS
# www.blender.org
mtllib bone.mtl
o Cylinder
v 0.000000 0.356981 -0.203022
v 0.199998 0.356981 -0.057715
v 0.123606 0.356981 0.177397
v 0.168237 0.769381 0.177397
v 0.000000 0.663918 -0.203022
v 0.357716 0.454485 -0.057715
v 0.157718 0.410236 -0.203022
v 0.281323 0.453622 0.177397
v 0.357716 0.722251 -0.057715
v 0.157718 0.769381 -0.203022
v 0.281323 0.704875 0.177397
v 0.000000 0.000000 -0.203022
v 0.199998 0.000000 -0.057715
v 0.123606 0.000000 0.177397
v 0.000000 0.356981 0.177397
v 0.000000 0.663918 0.177397
v 0.000000 0.000000 0.177397
v -0.199998 0.356981 -0.057715
v -0.123605 0.356981 0.177397
v -0.168237 0.769381 0.177397
v -0.357716 0.454485 -0.057715
v -0.157718 0.410236 -0.203022
v -0.281323 0.453622 0.177397
v -0.357716 0.722251 -0.057715
v -0.157718 0.769381 -0.203022
v -0.281323 0.704875 0.177397
v -0.199998 0.000000 -0.057715
v -0.123605 0.000000 0.177397
v 0.000000 -0.356981 -0.203022
v 0.199998 -0.356980 -0.057715
v 0.123606 -0.356980 0.177397
v 0.168237 -0.769381 0.177397
v 0.000000 -0.663918 -0.203022
v 0.357716 -0.454485 -0.057715
v 0.157718 -0.410236 -0.203022
v 0.281323 -0.453622 0.177397
v 0.357716 -0.722251 -0.057715
v 0.157718 -0.769381 -0.203022
v 0.281323 -0.704875 0.177397
v 0.000000 -0.356980 0.177397
v 0.000000 -0.663918 0.177397
v -0.199998 -0.356980 -0.057715
v -0.123605 -0.356980 0.177397
v -0.168237 -0.769381 0.177397
v -0.357716 -0.454485 -0.057715
v -0.157718 -0.410236 -0.203022
v -0.281323 -0.453622 0.177397
v -0.357716 -0.722251 -0.057715
v -0.157718 -0.769381 -0.203022
v -0.281323 -0.704875 0.177397
vn -0.0000 -0.0000 -1.0000
vn -0.0000 -0.2000 -0.9798
vn 0.7526 -0.6074 -0.2543
vn 0.9511 -0.0000 -0.3090
vn 0.3987 -0.2014 0.8947
vn 0.5878 -0.0000 0.8090
vn -0.0000 -0.0000 1.0000
vn -0.0000 0.5242 0.8516
vn 0.8317 0.5001 -0.2413
vn 0.0533 0.7296 -0.6818
vn -0.0650 0.7717 0.6326
vn 0.5864 0.3688 0.7212
vn 0.3681 -0.4209 -0.8290
vn 0.8730 -0.4182 -0.2511
vn 0.5953 -0.3766 0.7098
vn -0.0000 0.5231 -0.8523
vn -0.9511 -0.0000 -0.3090
vn -0.7526 -0.6074 -0.2543
vn -0.5878 -0.0000 0.8090
vn -0.3987 -0.2014 0.8947
vn -0.8317 0.5001 -0.2413
vn 0.0650 0.7717 0.6326
vn -0.0533 0.7296 -0.6818
vn -0.5864 0.3688 0.7212
vn -0.8730 -0.4182 -0.2511
vn -0.3681 -0.4209 -0.8290
vn -0.5953 -0.3766 0.7098
vn 0.7526 0.6074 -0.2543
vn -0.0000 0.2000 -0.9798
vn 0.3987 0.2014 0.8947
vn -0.0000 -0.5242 0.8516
vn 0.8317 -0.5001 -0.2413
vn -0.0650 -0.7717 0.6326
vn 0.0533 -0.7296 -0.6818
vn 0.5864 -0.3688 0.7212
vn 0.8730 0.4182 -0.2511
vn 0.3681 0.4209 -0.8290
vn 0.5953 0.3766 0.7098
vn -0.0000 -0.5231 -0.8523
vn -0.7526 0.6074 -0.2543
vn -0.3987 0.2014 0.8947
vn -0.8317 -0.5001 -0.2413
vn -0.0533 -0.7296 -0.6818
vn 0.0650 -0.7717 0.6326
vn -0.5864 -0.3688 0.7212
vn -0.3681 0.4209 -0.8290
vn -0.8730 0.4182 -0.2511
vn -0.5953 0.3766 0.7098
vt 1.000000 0.750000
vt 1.000000 1.000000
vt 0.800000 1.000000
vt 0.800000 0.750000
vt 0.600000 1.000000
vt 0.600000 0.750000
vt 0.500000 1.000000
vt 0.478254 0.324164
vt 0.351781 0.416052
vt 0.431340 0.179780
vt 0.391068 0.055836
vt 0.000000 1.000000
vt 0.500000 0.750000
vt 0.250000 0.490000
s 1
f 12/1/1 1/2/2 2/3/3 13/4/4
f 13/4/4 2/3/3 3/5/5 14/6/6
f 15/7/7 3/5/5 16/7/8
f 9/8/9 10/9/10 4/10/11
f 9/8/9 4/11/11 11/11/12
f 2/3/3 1/2/2 7/2/13 6/3/14
f 8/5/15 6/3/14 9/3/9 11/5/12
f 6/3/14 7/2/13 10/2/10 9/3/9
f 3/5/5 2/3/3 6/3/14 8/5/15
f 1/12/2 5/12/16 10/12/10 7/12/13
f 16/5/8 3/5/5 8/5/15 11/5/12 4/5/11
f 14/6/6 3/5/5 15/7/7 17/13/7
f 10/14/10 5/14/16 16/11/8 4/10/11
f 12/1/1 27/4/17 18/3/18 1/2/2
f 27/4/17 28/6/19 19/5/20 18/3/18
f 15/7/7 16/7/8 19/5/20
f 24/8/21 20/10/22 25/9/23
f 24/8/21 26/11/24 20/11/22
f 18/3/18 21/3/25 22/2/26 1/2/2
f 23/5/27 26/5/24 24/3/21 21/3/25
f 21/3/25 24/3/21 25/2/23 22/2/26
f 19/5/20 23/5/27 21/3/25 18/3/18
f 1/12/2 22/12/26 25/12/23 5/12/16
f 16/5/8 20/5/22 26/5/24 23/5/27 19/5/20
f 28/6/19 17/13/7 15/7/7 19/5/20
f 25/14/23 20/10/22 16/11/8 5/14/16
f 12/1/1 13/4/4 30/3/28 29/2/29
f 13/4/4 14/6/6 31/5/30 30/3/28
f 40/7/7 41/7/31 31/5/30
f 37/8/32 32/10/33 38/9/34
f 37/8/32 39/11/35 32/11/33
f 30/3/28 34/3/36 35/2/37 29/2/29
f 36/5/38 39/5/35 37/3/32 34/3/36
f 34/3/36 37/3/32 38/2/34 35/2/37
f 31/5/30 36/5/38 34/3/36 30/3/28
f 29/12/29 35/12/37 38/12/34 33/12/39
f 41/5/31 32/5/33 39/5/35 36/5/38 31/5/30
f 14/6/6 17/13/7 40/7/7 31/5/30
f 38/14/34 32/10/33 41/11/31 33/14/39
f 12/1/1 29/2/29 42/3/40 27/4/17
f 27/4/17 42/3/40 43/5/41 28/6/19
f 40/7/7 43/5/41 41/7/31
f 48/8/42 49/9/43 44/10/44
f 48/8/42 44/11/44 50/11/45
f 42/3/40 29/2/29 46/2/46 45/3/47
f 47/5/48 45/3/47 48/3/42 50/5/45
f 45/3/47 46/2/46 49/2/43 48/3/42
f 43/5/41 42/3/40 45/3/47 47/5/48
f 29/12/29 33/12/39 49/12/43 46/12/46
f 41/5/31 43/5/41 47/5/48 50/5/45 44/5/44
f 28/6/19 43/5/41 40/7/7 17/13/7
f 49/14/43 33/14/39 41/11/31 44/10/44
