# Blender 5.2.1 LTS
# www.blender.org
o Plane
v -0.500455 -0.000940 0.893637
v 0.492249 -0.000940 0.893637
v -0.466660 0.194053 -0.827490
v 0.526044 0.194053 -0.827490
v -0.489279 0.031924 -0.679480
v -0.499247 -0.066923 -0.429577
v -0.499247 -0.066923 -0.096244
v -0.504979 -0.026533 0.221260
v -0.494678 0.047357 0.544993
v 0.498025 0.047357 0.544993
v 0.487725 -0.026533 0.221259
v 0.493457 -0.066923 -0.096244
v 0.493457 -0.066923 -0.429577
v 0.503424 0.031924 -0.679480
v -0.498038 0.040397 0.724216
v 0.494666 0.040397 0.724216
v -0.500468 0.025414 0.383020
v 0.492236 0.025414 0.383020
vn -0.0000 0.9715 0.2370
vn -0.0000 0.6742 0.7385
vn -0.0000 0.8291 0.5591
vn -0.0000 0.9827 0.1850
vn -0.0000 0.9980 -0.0636
vn -0.0000 0.9763 -0.2166
vn -0.0000 0.9988 -0.0484
vn -0.0000 0.9989 -0.0474
vn -0.0000 0.9761 -0.2171
vn -0.0000 0.9980 -0.0629
vn -0.0000 0.9819 0.1894
vn -0.0000 0.8174 0.5760
vn -0.0000 0.9902 0.1396
vn -0.0000 0.9905 0.1376
vn -0.0000 0.9749 -0.2226
vn -0.0000 0.9757 -0.2192
vt 0.000000 0.833333
vt 1.000000 0.833333
vt 1.000000 1.000000
vt 0.000000 1.000000
vt 0.000000 0.083333
vt 1.000000 0.083333
vt 1.000000 0.166667
vt 0.000000 0.166667
vt 0.000000 0.250000
vt 1.000000 0.250000
vt 1.000000 0.333333
vt 0.000000 0.333333
vt 1.000000 0.500000
vt 0.000000 0.500000
vt 1.000000 0.666667
vt 0.000000 0.666667
vt 0.000000 0.000000
vt 1.000000 0.000000
s 1
f 5/1/3 14/2/12 4/3/2 3/4/2
f 15/5/13 16/6/14 10/7/8 9/8/7
f 17/9/15 18/10/16 11/11/9 8/12/6
f 8/12/6 11/11/9 12/13/10 7/14/5
f 7/14/5 12/13/10 13/15/11 6/16/4
f 6/16/4 13/15/11 14/2/12 5/1/3
f 1/17/1 2/18/1 16/6/14 15/5/13
f 9/8/7 10/7/8 18/10/16 17/9/15
