# Blender 5.2.1 LTS
# www.blender.org
mtllib obelisk.mtl
o Cube
v 0.916026 15.845714 -0.916026
v 1.704820 0.000000 -1.704820
v 0.916026 15.845714 0.916026
v 1.704820 0.000000 1.704820
v -0.916026 15.845714 -0.916026
v -1.704820 0.000000 -1.704820
v -0.916026 15.845714 0.916026
v -1.704820 0.000000 1.704820
v 0.000000 16.959326 0.000000
vn -0.0000 0.6353 -0.7723
vn -0.0000 0.0497 0.9988
vn -0.9988 0.0497 -0.0000
vn -0.0000 -1.0000 -0.0000
vn 0.9988 0.0497 -0.0000
vn -0.0000 0.0497 -0.9988
vn -0.0000 0.6353 0.7723
vn -0.7723 0.6353 -0.0000
vn 0.7723 0.6353 -0.0000
vt 0.625000 0.500000
vt 0.625000 0.250000
vt 0.375000 0.750000
vt 0.625000 0.750000
vt 0.625000 1.000000
vt 0.375000 1.000000
vt 0.375000 0.000000
vt 0.625000 0.000000
vt 0.375000 0.250000
vt 0.125000 0.500000
vt 0.375000 0.500000
vt 0.125000 0.750000
s 0
usemtl Material
f 1/1/1 5/2/1 9/1/1
f 4/3/2 3/4/2 7/5/2 8/6/2
f 8/7/3 7/8/3 5/2/3 6/9/3
f 6/10/4 2/11/4 4/3/4 8/12/4
f 2/11/5 1/1/5 3/4/5 4/3/5
f 6/9/6 5/2/6 1/1/6 2/11/6
f 7/5/7 3/4/7 9/5/7
f 5/2/8 7/8/8 9/2/8
f 3/4/9 1/1/9 9/4/9
