# Blender 5.2.1 LTS
# www.blender.org
mtllib sign.mtl
o Plane.002
v -1.000000 1.596330 0.064398
v 0.889212 1.596330 0.064398
v -1.000000 1.923141 0.064398
v 0.889212 1.923141 0.064398
v -0.932837 1.841439 0.064398
v -1.000000 1.759736 0.064398
v -0.932837 1.678033 0.064398
v 1.000000 1.678033 0.064398
v 0.889212 1.759736 0.064398
v 1.000000 1.841439 0.064398
v -0.932837 1.678033 0.123281
v -1.000000 1.596330 0.123281
v 0.889212 1.596330 0.123281
v 1.000000 1.841439 0.123281
v 0.889212 1.923141 0.123281
v -1.000000 1.923141 0.123281
v -0.932837 1.841439 0.123281
v -1.000000 1.759736 0.123281
v 1.000000 1.678033 0.123281
v 0.889212 1.759736 0.123281
v 0.000000 0.000000 -0.100000
v 0.000000 2.000000 -0.100000
v 0.070711 0.000000 -0.070711
v 0.070711 2.000000 -0.070711
v 0.100000 0.000000 0.000000
v 0.100000 2.000000 -0.000000
v 0.070711 -0.000000 0.070711
v 0.070711 2.000000 0.070711
v 0.000000 -0.000000 0.100000
v 0.000000 2.000000 0.100000
v -0.070711 -0.000000 0.070711
v -0.070711 2.000000 0.070711
v -0.100000 0.000000 0.000000
v -0.100000 2.000000 -0.000000
v -0.070711 0.000000 -0.070711
v -0.070711 2.000000 -0.070711
v -1.000000 0.836594 0.064398
v 0.889212 0.836594 0.064398
v -1.000000 1.163406 0.064398
v 0.889212 1.163406 0.064398
v -0.932837 1.081703 0.064398
v -1.000000 1.000000 0.064398
v -0.932837 0.918297 0.064398
v 1.000000 0.918297 0.064398
v 0.889212 1.000000 0.064398
v 1.000000 1.081703 0.064398
v -0.932837 0.918297 0.123281
v -1.000000 0.836594 0.123281
v 0.889212 0.836594 0.123281
v 1.000000 1.081703 0.123281
v 0.889212 1.163406 0.123281
v -1.000000 1.163406 0.123281
v -0.932837 1.081703 0.123281
v -1.000000 1.000000 0.123281
v 1.000000 0.918297 0.123281
v 0.889212 1.000000 0.123281
v 0.896527 1.219845 0.064398
v -0.992684 1.219845 0.064398
v 0.896527 1.546656 0.064398
v -0.992684 1.546656 0.064398
v 0.829365 1.464953 0.064398
v 0.896527 1.383250 0.064398
v 0.829365 1.301548 0.064398
v -1.103473 1.301548 0.064398
v -0.992684 1.383250 0.064398
v -1.103473 1.464953 0.064398
v 0.829365 1.301548 0.123281
v 0.896527 1.219845 0.123281
v -0.992684 1.219845 0.123281
v -1.103473 1.464953 0.123281
v -0.992684 1.546656 0.123281
v 0.896527 1.546656 0.123281
v 0.829365 1.464953 0.123281
v 0.896527 1.383250 0.123281
v -1.103473 1.301548 0.123281
v -0.992684 1.383250 0.123281
vn -0.0000 -0.0000 -1.0000
vn -0.0000 -0.0000 1.0000
vn -0.7725 -0.6350 -0.0000
vn -0.0000 -1.0000 -0.0000
vn 0.5935 0.8048 -0.0000
vn -0.7725 0.6350 -0.0000
vn 0.5935 -0.8048 -0.0000
vn -0.0000 1.0000 -0.0000
vn 0.3827 -0.0000 -0.9239
vn 0.9239 -0.0000 -0.3827
vn 0.9239 -0.0000 0.3827
vn 0.3827 -0.0000 0.9239
vn -0.3827 -0.0000 0.9239
vn -0.9239 -0.0000 0.3827
vn -0.9239 -0.0000 -0.3827
vn -0.3827 -0.0000 -0.9239
vn 0.7725 -0.6350 -0.0000
vn -0.5935 0.8048 -0.0000
vn 0.7725 0.6350 -0.0000
vn -0.5935 -0.8048 -0.0000
vt 0.000000 0.750000
vt 0.000000 1.000000
vt 1.000000 1.000000
vt 1.000000 0.750000
vt 0.000000 0.000000
vt 0.000000 0.250000
vt 1.000000 0.250000
vt 1.000000 0.000000
vt 0.000000 0.500000
vt 1.000000 0.500000
vt 0.875000 1.000000
vt 0.875000 0.500000
vt 0.750000 1.000000
vt 0.750000 0.500000
vt 0.625000 1.000000
vt 0.625000 0.500000
vt 0.500000 1.000000
vt 0.500000 0.500000
vt 0.375000 1.000000
vt 0.375000 0.500000
vt 0.250000 1.000000
vt 0.250000 0.500000
vt 0.419706 0.419706
vt 0.250000 0.490000
vt 0.080294 0.419706
vt 0.010000 0.250000
vt 0.080294 0.080294
vt 0.250000 0.010000
vt 0.419706 0.080294
vt 0.490000 0.250000
vt 0.125000 1.000000
vt 0.125000 0.500000
vt 0.000000 0.500000
vt 0.750000 0.490000
vt 0.919706 0.419706
vt 0.990000 0.250000
vt 0.919706 0.080294
vt 0.750000 0.010000
vt 0.580294 0.080294
vt 0.510000 0.250000
vt 0.580294 0.419706
s 0
f 5/1/1 3/2/1 4/3/1 10/4/1
f 1/5/1 7/6/1 8/7/1 2/8/1
f 7/6/1 6/9/1 9/10/1 8/7/1
f 6/9/1 5/1/1 10/4/1 9/10/1
f 17/1/2 14/4/2 15/3/2 16/2/2
f 12/5/2 13/8/2 19/7/2 11/6/2
f 11/6/2 19/7/2 20/10/2 18/9/2
f 18/9/2 20/10/2 14/4/2 17/1/2
f 3/2/3 5/1/3 17/1/3 16/2/3
f 1/5/4 2/8/4 13/8/4 12/5/4
f 8/7/5 9/10/5 20/10/5 19/7/5
f 5/1/6 6/9/6 18/9/6 17/1/6
f 10/4/5 4/3/5 15/3/5 14/4/5
f 9/10/7 10/4/7 14/4/7 20/10/7
f 6/9/3 7/6/3 11/6/3 18/9/3
f 4/3/8 3/2/8 16/2/8 15/3/8
f 7/6/6 1/5/6 12/5/6 11/6/6
f 2/8/7 8/7/7 19/7/7 13/8/7
f 21/10/9 22/3/9 24/11/9 23/12/9
f 23/12/10 24/11/10 26/13/10 25/14/10
f 25/14/11 26/13/11 28/15/11 27/16/11
f 27/16/12 28/15/12 30/17/12 29/18/12
f 29/18/13 30/17/13 32/19/13 31/20/13
f 31/20/14 32/19/14 34/21/14 33/22/14
f 24/23/8 22/24/8 36/25/8 34/26/8 32/27/8 30/28/8 28/29/8 26/30/8
f 33/22/15 34/21/15 36/31/15 35/32/15
f 35/32/16 36/31/16 22/2/16 21/33/16
f 21/34/4 23/35/4 25/36/4 27/37/4 29/38/4 31/39/4 33/40/4 35/41/4
f 41/1/1 39/2/1 40/3/1 46/4/1
f 37/5/1 43/6/1 44/7/1 38/8/1
f 43/6/1 42/9/1 45/10/1 44/7/1
f 42/9/1 41/1/1 46/4/1 45/10/1
f 53/1/2 50/4/2 51/3/2 52/2/2
f 48/5/2 49/8/2 55/7/2 47/6/2
f 47/6/2 55/7/2 56/10/2 54/9/2
f 54/9/2 56/10/2 50/4/2 53/1/2
f 39/2/3 41/1/3 53/1/3 52/2/3
f 37/5/4 38/8/4 49/8/4 48/5/4
f 44/7/5 45/10/5 56/10/5 55/7/5
f 41/1/6 42/9/6 54/9/6 53/1/6
f 46/4/5 40/3/5 51/3/5 50/4/5
f 45/10/7 46/4/7 50/4/7 56/10/7
f 42/9/3 43/6/3 47/6/3 54/9/3
f 40/3/8 39/2/8 52/2/8 51/3/8
f 43/6/6 37/5/6 48/5/6 47/6/6
f 38/8/7 44/7/7 55/7/7 49/8/7
f 61/1/1 66/4/1 60/3/1 59/2/1
f 57/5/1 58/8/1 64/7/1 63/6/1
f 63/6/1 64/7/1 65/10/1 62/9/1
f 62/9/1 65/10/1 66/4/1 61/1/1
f 73/1/2 72/2/2 71/3/2 70/4/2
f 68/5/2 67/6/2 75/7/2 69/8/2
f 67/6/2 74/9/2 76/10/2 75/7/2
f 74/9/2 73/1/2 70/4/2 76/10/2
f 59/2/17 72/2/17 73/1/17 61/1/17
f 57/5/4 68/5/4 69/8/4 58/8/4
f 64/7/18 75/7/18 76/10/18 65/10/18
f 61/1/19 73/1/19 74/9/19 62/9/19
f 66/4/18 70/4/18 71/3/18 60/3/18
f 65/10/20 76/10/20 70/4/20 66/4/20
f 62/9/17 74/9/17 67/6/17 63/6/17
f 60/3/8 71/3/8 72/2/8 59/2/8
f 63/6/19 67/6/19 68/5/19 57/5/19
f 58/8/20 69/8/20 75/7/20 64/7/20
